<?xml version="1.0" encoding="utf-8"?>
<!-- Generator: Adobe Illustrator 16.0.0, SVG Export Plug-In . SVG Version: 6.00 Build 0)  -->
<!DOCTYPE svg PUBLIC "-//W3C//DTD SVG 1.1//EN" "http://www.w3.org/Graphics/SVG/1.1/DTD/svg11.dtd">
<svg version="1.1" id="Layer_1" xmlns="http://www.w3.org/2000/svg" xmlns:xlink="http://www.w3.org/1999/xlink" x="0px" y="0px"
	 width="680.965px" height="502.475px" viewBox="0 0 680.965 502.475" enable-background="new 0 0 680.965 502.475"
	 xml:space="preserve">
<g>
	<polygon fill="#E5E5E5" points="582.524,260.45 523.172,260.45 509.98,319.35 552.848,332.188 595.715,319.35 	"/>
	<g>
		<path fill="#34495E" d="M509.493,306.168l-55.056,26.06c-11.739,5.977-20.754,16.208-25.205,28.606v79.209H551.09V319.787
			L509.493,306.168z"/>
		<path fill="#34495E" d="M592.985,306.168l54.76,26.06c11.74,5.977,20.755,16.208,25.205,28.606v79.209H551.09V319.787
			L592.985,306.168z"/>
		<polygon fill="#F1F1F1" points="509.493,306.168 551.09,440.043 592.985,306.168 551.09,319.787 		"/>
		<g>
			<polygon fill="#89AB33" points="551.09,319.787 551.09,440.043 530.233,372.909 542.452,337.408 528.159,321.087 			"/>
			<polygon fill="#768E2D" points="551.09,319.787 551.09,440.043 572.137,372.909 559.731,337.408 574.023,321.087 			"/>
			<polygon fill="#FFFFFF" points="509.493,306.168 495.176,348.572 551.09,319.787 			"/>
			<polygon fill="#FFFFFF" points="592.985,306.168 607.006,348.572 551.09,319.787 			"/>
		</g>
	</g>
	<path fill="#F1F1F1" d="M582.629,298.939L582.629,298.939c-18.139,11.672-41.424,11.672-59.563,0l0,0
		c-15.741-10.129-25.254-27.563-25.254-46.281v-63.769h110.071v63.769C607.883,271.375,598.37,288.81,582.629,298.939z"/>
	<path fill="#34495E" d="M501.389,211.195l-0.672-8.201c0,0,47.477,18.417,98.429-5.603c0,0-2.348,32.847,9.298,42.309
		c0,0,19.459-39.128-3.834-68.244c0,0-58.799-56.582-111.161,14.417c0,0-7.9,32.12,4.11,55.776l0,0
		C500.93,231.873,502.234,221.502,501.389,211.195z"/>
	<path fill="#768E2D" d="M619.759,236.371h-5.472v-25.35c0-33.771-27.474-61.245-61.244-61.245
		c-33.771,0-61.246,27.475-61.246,61.245v25.35h-5.471v-25.35c0-36.788,29.928-66.716,66.717-66.716
		c36.787,0,66.716,29.929,66.716,66.716V236.371z"/>
	<path fill="#768E2D" d="M616.979,236.608l-5.47,0.118c0.003,0.117,0.191,11.842-4.976,23.622
		c-6.529,14.887-18.343,22.938-35.105,23.993c-1.183-1.75-3.186-2.9-5.456-2.9c-3.635,0-6.581,2.947-6.581,6.582
		s2.946,6.582,6.581,6.582c3.025,0,5.567-2.044,6.337-4.825c23.193-1.667,34.13-15.591,39.234-27.233
		C617.19,249.669,616.991,237.135,616.979,236.608z"/>
	<g>
		<g>
			<path fill="#89AB33" d="M490.24,261.244L490.24,261.244c-8.137,0-14.734-6.597-14.734-14.734v-10.959
				c0-8.137,6.597-14.734,14.734-14.734l0,0c4.267,0,7.725,3.459,7.725,7.726v24.976
				C497.965,257.785,494.507,261.244,490.24,261.244z"/>
			<path fill="#89AB33" d="M615.456,261.244L615.456,261.244c8.137,0,14.734-6.597,14.734-14.734v-10.959
				c0-8.137-6.598-14.734-14.734-14.734l0,0c-4.267,0-7.725,3.459-7.725,7.726v24.976
				C607.731,257.785,611.189,261.244,615.456,261.244z"/>
		</g>
	</g>
</g>
<g>
	<g>
		<path fill="#ADBCC3" d="M324.072,14.814c-54.422,0-98.539,35.937-98.539,80.268c0,19.058,8.159,36.562,21.781,50.329
			l-18.776,37.217l53.793-14.821c12.676,4.835,26.819,7.542,41.741,7.542c54.422,0,98.539-35.937,98.539-80.267
			C422.611,50.751,378.494,14.814,324.072,14.814z"/>
		<g>
			<circle fill="#FFFFFF" cx="265.212" cy="95.432" r="5.544"/>
			<circle fill="#FFFFFF" cx="294.642" cy="95.432" r="5.544"/>
			<circle fill="#FFFFFF" cx="324.072" cy="95.432" r="5.544"/>
			<circle fill="#FFFFFF" cx="353.501" cy="95.432" r="5.544"/>
			<circle fill="#FFFFFF" cx="382.931" cy="95.432" r="5.544"/>
		</g>
	</g>
	<g>
		<path fill="#89AB33" d="M365.089,109.876c41.1,0,74.417,27.139,74.417,60.617c0,14.393-6.162,27.611-16.449,38.008l14.18,28.106
			l-40.625-11.193c-9.572,3.652-20.253,5.696-31.522,5.696c-41.099,0-74.416-27.14-74.416-60.618S323.991,109.876,365.089,109.876z"
			/>
		<g>
			<circle fill="#FFFFFF" cx="409.54" cy="170.758" r="4.187"/>
			<circle fill="#FFFFFF" cx="387.315" cy="170.758" r="4.187"/>
			<circle fill="#FFFFFF" cx="365.09" cy="170.758" r="4.187"/>
			<circle fill="#FFFFFF" cx="342.864" cy="170.758" r="4.187"/>
			<circle fill="#FFFFFF" cx="320.64" cy="170.758" r="4.187"/>
		</g>
	</g>
</g>
<g>
	<path fill="#89AB33" d="M54.195,158.221l-20.819,17.933c-25.521,20.967-19.471,56.198-1.738,84.29l23.995,38.015l23.996,38.015
		c17.732,28.092,46.934,48.709,76.84,34.69l25.145-11.082c6.69-2.527,8.387-11.209,3.14-16.068L156.129,317.5
		c-4.102-3.799-10.566-3.316-14.059,1.049l-3.497,4.371c-12.845,4.198-25.132,1.223-30.577-7.403l-22.618-35.833L62.76,243.849
		c-5.445-8.626-2.846-20.998,6.469-30.788l5.45-1.276c5.444-1.275,8.66-6.903,6.995-12.241l-11.621-37.245
		C67.922,155.472,59.355,153.269,54.195,158.221z"/>
	<polygon fill="#34495E" points="184.251,260.535 201.738,197.729 136.811,191.847 146.363,205.678 100.076,237.647 
		128.412,278.672 174.698,246.704 	"/>
</g>
<g>
	<path fill="#ADBCC3" d="M89.923,1316.069l86.749-85.143c14.784-14.51,38.465-14.51,53.25,0l86.749,85.143H89.923z"/>
	<rect x="89.923" y="1315.839" fill="#ADBCC3" width="226.748" height="148.229"/>
	<rect x="106.537" y="1252.78" fill="#F1F1F1" width="193.52" height="153.467"/>
	<g>
		<rect x="113.166" y="1262.781" fill="#D7DADB" width="180.262" height="4.028"/>
		<rect x="113.166" y="1277.887" fill="#D7DADB" width="180.262" height="4.028"/>
		<rect x="113.166" y="1292.992" fill="#D7DADB" width="180.262" height="4.028"/>
		<rect x="113.166" y="1308.099" fill="#D7DADB" width="180.262" height="4.027"/>
		<rect x="113.166" y="1323.204" fill="#D7DADB" width="180.262" height="4.028"/>
		<rect x="113.166" y="1338.31" fill="#D7DADB" width="180.262" height="4.028"/>
		<rect x="113.166" y="1353.415" fill="#D7DADB" width="180.262" height="4.028"/>
		<rect x="113.166" y="1368.521" fill="#D7DADB" width="180.262" height="4.028"/>
	</g>
	<polygon fill="#8AA6B3" points="89.923,1315.839 203.297,1389.954 89.923,1464.068 	"/>
	<polygon fill="#8AA6B3" points="316.67,1315.839 203.297,1389.954 316.67,1464.068 	"/>
	<path fill="#7697A8" d="M89.923,1464.068l86.749-85.143c14.784-14.511,38.465-14.511,53.25,0l86.749,85.143H89.923z"/>
	<g>
		<path fill="#DF4949" d="M205.213,1352.148l4.469,2.883c0.621,0.4,1.352,0.597,2.09,0.56l5.312-0.262
			c1.387-0.068,2.685,0.682,3.319,1.916l2.429,4.731c0.337,0.657,0.873,1.192,1.53,1.53l4.731,2.43
			c1.235,0.634,1.984,1.932,1.916,3.318l-0.262,5.313c-0.036,0.737,0.16,1.469,0.56,2.09l2.883,4.47
			c0.752,1.166,0.752,2.665,0,3.832l-2.883,4.469c-0.4,0.621-0.596,1.353-0.56,2.091l0.262,5.312
			c0.068,1.387-0.681,2.685-1.916,3.319l-4.731,2.429c-0.657,0.338-1.192,0.873-1.53,1.53l-2.429,4.731
			c-0.634,1.234-1.932,1.984-3.319,1.916l-5.312-0.262c-0.738-0.036-1.469,0.159-2.09,0.56l-4.469,2.883
			c-1.167,0.753-2.666,0.753-3.832,0l-4.47-2.883c-0.621-0.4-1.352-0.596-2.09-0.56l-5.313,0.262
			c-1.386,0.068-2.685-0.682-3.318-1.916l-2.429-4.731c-0.338-0.657-0.873-1.192-1.53-1.53l-4.731-2.429
			c-1.235-0.635-1.984-1.933-1.916-3.319l0.262-5.312c0.037-0.738-0.159-1.47-0.56-2.091l-2.883-4.469
			c-0.752-1.167-0.752-2.666,0-3.832l2.883-4.47c0.4-0.621,0.596-1.353,0.56-2.09l-0.262-5.313
			c-0.068-1.387,0.681-2.685,1.916-3.318l4.731-2.43c0.658-0.338,1.192-0.873,1.53-1.53l2.429-4.731
			c0.634-1.234,1.932-1.984,3.318-1.916l5.313,0.262c0.738,0.037,1.469-0.159,2.09-0.56l4.47-2.883
			C202.547,1351.396,204.046,1351.396,205.213,1352.148z"/>
		<circle fill="#D13D3D" cx="203.297" cy="1383.043" r="26.105"/>
	</g>
</g>
<g>
	<g>
		<path fill="#ADBCC3" d="M1343.047,1221.693h-11.795c-1.23-5.408-3.359-10.473-6.227-15.028l8.342-8.341
			c1.084-1.084,1.084-2.842,0-3.926l-11.391-11.39c-1.084-1.084-2.842-1.084-3.926,0l-8.341,8.341
			c-4.556-2.867-9.62-4.996-15.028-6.227v-11.794c0-1.533-1.242-2.776-2.775-2.776h-16.107c-1.533,0-2.775,1.243-2.775,2.776v11.794
			c-5.408,1.23-10.473,3.359-15.028,6.227l-8.341-8.341c-1.084-1.084-2.842-1.084-3.926,0l-11.391,11.39
			c-1.084,1.084-1.084,2.842,0,3.926l8.342,8.341c-2.867,4.556-4.996,9.62-6.227,15.028h-11.795c-1.532,0-2.775,1.242-2.775,2.775
			v16.107c0,1.533,1.243,2.776,2.775,2.776h11.795c1.23,5.407,3.359,10.472,6.227,15.027l-8.342,8.341
			c-1.084,1.084-1.084,2.842,0,3.926l11.391,11.39c1.084,1.084,2.842,1.084,3.926,0l8.341-8.341
			c4.556,2.867,9.62,4.996,15.028,6.227v11.794c0,1.533,1.242,2.776,2.775,2.776h16.107c1.533,0,2.775-1.243,2.775-2.776v-11.794
			c5.408-1.23,10.473-3.359,15.028-6.227l8.341,8.341c1.084,1.084,2.842,1.084,3.926,0l11.391-11.39
			c1.084-1.084,1.084-2.842,0-3.926l-8.342-8.341c2.867-4.556,4.996-9.62,6.227-15.027h11.795c1.533,0,2.775-1.243,2.775-2.776
			v-16.107C1345.823,1222.936,1344.581,1221.693,1343.047,1221.693z M1283.853,1270.192c-20.771,0-37.67-16.899-37.67-37.67
			s16.898-37.669,37.67-37.669s37.67,16.898,37.67,37.669S1304.625,1270.192,1283.853,1270.192z"/>
		<path fill="#ADBCC3" d="M1283.853,1198.438c-18.794,0-34.085,15.29-34.085,34.085c0,18.794,15.291,34.085,34.085,34.085
			c18.795,0,34.085-15.291,34.085-34.085C1317.938,1213.728,1302.648,1198.438,1283.853,1198.438z M1283.853,1255.491
			c-12.685,0-22.969-10.283-22.969-22.969c0-12.685,10.284-22.969,22.969-22.969s22.968,10.284,22.968,22.969
			C1306.821,1245.208,1296.538,1255.491,1283.853,1255.491z"/>
	</g>
	<g>
		<path fill="#ADBCC3" d="M1438.033,1163.273h-11.159c-1.164-5.116-3.178-9.906-5.891-14.217l7.893-7.892
			c1.025-1.025,1.025-2.688,0-3.714l-10.776-10.776c-1.025-1.025-2.688-1.025-3.714,0l-7.892,7.892
			c-4.311-2.713-9.101-4.727-14.218-5.891v-11.158c0-1.45-1.176-2.627-2.626-2.627h-15.239c-1.45,0-2.626,1.177-2.626,2.627v11.158
			c-5.116,1.164-9.907,3.178-14.218,5.891l-7.891-7.892c-1.026-1.025-2.689-1.025-3.715,0l-10.775,10.776
			c-1.025,1.025-1.025,2.688,0,3.714l7.892,7.892c-2.713,4.311-4.727,9.101-5.892,14.217h-11.158c-1.45,0-2.626,1.176-2.626,2.627
			v15.238c0,1.451,1.176,2.627,2.626,2.627h11.158c1.165,5.116,3.179,9.907,5.892,14.217l-7.892,7.892
			c-1.025,1.026-1.025,2.688,0,3.715l10.775,10.775c1.025,1.025,2.688,1.025,3.715,0l7.891-7.892
			c4.311,2.713,9.102,4.727,14.218,5.891v11.158c0,1.451,1.176,2.627,2.626,2.627h15.239c1.45,0,2.626-1.176,2.626-2.627v-11.158
			c5.117-1.164,9.907-3.178,14.218-5.891l7.892,7.892c1.025,1.025,2.688,1.025,3.714,0l10.776-10.775
			c1.025-1.026,1.025-2.688,0-3.715l-7.893-7.892c2.713-4.31,4.727-9.101,5.891-14.217h11.159c1.45,0,2.626-1.176,2.626-2.627
			V1165.9C1440.659,1164.449,1439.483,1163.273,1438.033,1163.273z M1382.03,1209.158c-19.65,0-35.639-15.987-35.639-35.639
			s15.988-35.639,35.639-35.639c19.652,0,35.64,15.987,35.64,35.639S1401.682,1209.158,1382.03,1209.158z"/>
		<path fill="#ADBCC3" d="M1382.03,1141.272c-17.781,0-32.246,14.466-32.246,32.247c0,17.78,14.465,32.247,32.246,32.247
			s32.248-14.467,32.248-32.247C1414.278,1155.738,1399.811,1141.272,1382.03,1141.272z M1382.03,1195.25
			c-12,0-21.729-9.729-21.729-21.73s9.729-21.73,21.729-21.73c12.002,0,21.73,9.729,21.73,21.73S1394.032,1195.25,1382.03,1195.25z"
			/>
	</g>
	<g>
		<path fill="#34495E" d="M1384.836,1159.248c-15.699-30.542-53.32-42.617-83.861-26.917c-30.543,15.7-42.617,53.32-26.916,83.862
			c14.605,28.413,48.18,40.829,77.379,29.784l26.188,50.942l12.588-6.471l-26.188-50.942
			C1390,1222.189,1399.442,1187.66,1384.836,1159.248z M1351.45,1230.522c-23.6,12.132-52.672,2.802-64.803-20.8
			c-12.133-23.601-2.803-52.672,20.799-64.804c23.601-12.132,52.671-2.802,64.803,20.8
			C1384.381,1189.319,1375.051,1218.39,1351.45,1230.522z"/>
		<path fill="#DF4949" d="M1416.387,1336.488l-16.555,8.51c-1.598,0.821-3.559,0.192-4.379-1.405l-36.881-71.745
			c-0.821-1.598-0.191-3.558,1.405-4.379l16.554-8.51c1.598-0.821,3.559-0.192,4.38,1.405l36.881,71.745
			C1418.614,1333.707,1417.985,1335.668,1416.387,1336.488z"/>
		<path fill="#F1F1F1" d="M1351.45,1230.522c-23.6,12.132-52.672,2.802-64.803-20.8c-12.133-23.601-2.803-52.672,20.799-64.804
			c23.601-12.132,52.671-2.802,64.803,20.8C1384.381,1189.319,1375.051,1218.39,1351.45,1230.522z"/>
		<path fill="#FFFFFF" d="M1366.885,1179.054c-2.173,1.116-4.839,0.261-5.956-1.912c-8.849-17.213-30.052-24.019-47.266-15.17
			c-2.173,1.116-4.839,0.261-5.956-1.912c-1.117-2.172-0.261-4.839,1.912-5.955c21.551-11.079,48.099-2.559,59.178,18.993
			C1369.914,1175.271,1369.057,1177.937,1366.885,1179.054z"/>
		<path fill="#D13D3D" d="M1426.944,1347.585l-24.23,12.456c-2.868,1.475-6.389,0.345-7.863-2.523l-33.215-64.616
			c-1.475-2.868-0.346-6.388,2.523-7.862l24.23-12.455c2.867-1.475,6.387-0.345,7.861,2.523l33.217,64.615
			C1430.942,1342.591,1429.811,1346.111,1426.944,1347.585z"/>
	</g>
</g>
<g>
	<g>
		<rect x="784.572" y="1416.113" fill="#34495E" width="73.147" height="14.116"/>
		<rect x="784.572" y="1434.935" fill="#34495E" width="73.147" height="14.115"/>
		<path fill="#34495E" d="M833.55,1477.925h-24.809c-13.349,0-24.17-10.821-24.17-24.17l0,0h73.147l0,0
			C857.719,1467.104,846.898,1477.925,833.55,1477.925z"/>
		<g>
			<path fill="#ADBCC3" d="M805.437,1335.427c-1.606,2.075-2.15,4.723-1.491,7.263l13.671,52.713v-63.242h-5.523
				C809.469,1332.16,807.042,1333.351,805.437,1335.427z"/>
			<path fill="#ADBCC3" d="M836.854,1335.427c-1.605-2.076-4.032-3.267-6.656-3.267h-5.522v63.242l13.67-52.713
				C839.004,1340.149,838.46,1337.502,836.854,1335.427z"/>
			<path fill="#ADBCC3" d="M821.146,1255.379c-42.182,0-76.377,34.195-76.377,76.377c0,23.756,10.846,42.604,27.856,55.763
				c7.543,5.836,11.946,14.844,11.946,24.38l0,0h30.032l-17.49-67.437c-1.211-4.671-0.212-9.539,2.741-13.354
				c2.952-3.816,7.414-6.006,12.238-6.006h5.523v-17.471c0-1.949,1.58-3.529,3.529-3.529s3.529,1.58,3.529,3.529v17.471h5.522
				c4.825,0,9.286,2.189,12.238,6.006c2.953,3.815,3.952,8.684,2.741,13.354l-17.489,67.437h30.031l0,0
				c0-9.536,4.404-18.544,11.947-24.38c17.01-13.158,27.856-32.007,27.856-55.763
				C897.523,1289.574,863.328,1255.379,821.146,1255.379z"/>
		</g>
	</g>
	<path fill="#DF4949" d="M822.548,1239.875L822.548,1239.875c-2.418,0-4.379-1.961-4.379-4.379v-24.929
		c0-2.419,1.961-4.379,4.379-4.379l0,0c2.419,0,4.38,1.96,4.38,4.379v24.929C826.928,1237.914,824.967,1239.875,822.548,1239.875z"
		/>
	<path fill="#DF4949" d="M775.892,1252.377L775.892,1252.377c-2.095,1.209-4.773,0.491-5.982-1.604l-12.464-21.589
		c-1.21-2.094-0.492-4.772,1.603-5.981l0,0c2.095-1.21,4.773-0.492,5.982,1.603l12.464,21.589
		C778.705,1248.489,777.987,1251.167,775.892,1252.377z"/>
	<path fill="#DF4949" d="M741.737,1286.531L741.737,1286.531c-1.209,2.095-3.888,2.813-5.981,1.604l-21.589-12.465
		c-2.095-1.209-2.813-3.888-1.604-5.981l0,0c1.21-2.095,3.888-2.813,5.982-1.604l21.589,12.464
		C742.229,1281.759,742.947,1284.437,741.737,1286.531z"/>
	<path fill="#DF4949" d="M932.534,1396.688L932.534,1396.688c-1.209,2.094-3.888,2.812-5.982,1.603l-21.588-12.464
		c-2.095-1.21-2.813-3.888-1.604-5.982l0,0c1.21-2.095,3.888-2.813,5.982-1.604l21.589,12.465
		C933.026,1391.915,933.743,1394.594,932.534,1396.688z"/>
	<path fill="#DF4949" d="M729.236,1333.188L729.236,1333.188c0,2.418-1.961,4.379-4.38,4.379h-24.928
		c-2.419,0-4.38-1.961-4.38-4.379l0,0c0-2.419,1.961-4.38,4.38-4.38h24.928C727.275,1328.809,729.236,1330.77,729.236,1333.188z"/>
	<path fill="#DF4949" d="M949.548,1333.188L949.548,1333.188c0,2.418-1.961,4.379-4.379,4.379h-24.929
		c-2.419,0-4.379-1.961-4.379-4.379l0,0c0-2.419,1.96-4.38,4.379-4.38h24.929C947.587,1328.809,949.548,1330.77,949.548,1333.188z"
		/>
	<path fill="#DF4949" d="M741.737,1379.845L741.737,1379.845c1.21,2.095,0.492,4.772-1.603,5.982l-21.589,12.464
		c-2.095,1.209-4.772,0.491-5.982-1.603l0,0c-1.209-2.095-0.491-4.773,1.604-5.982l21.589-12.465
		C737.849,1377.032,740.528,1377.75,741.737,1379.845z"/>
	<path fill="#DF4949" d="M932.534,1269.688L932.534,1269.688c1.209,2.094,0.492,4.772-1.603,5.981l-21.589,12.465
		c-2.095,1.209-4.772,0.491-5.982-1.604l0,0c-1.209-2.095-0.491-4.772,1.604-5.982l21.588-12.464
		C928.646,1266.876,931.325,1267.594,932.534,1269.688z"/>
	<path fill="#DF4949" d="M886.048,1223.203L886.048,1223.203c2.095,1.209,2.813,3.888,1.604,5.981l-12.465,21.589
		c-1.209,2.095-3.888,2.813-5.982,1.604l0,0c-2.094-1.21-2.812-3.888-1.603-5.982l12.464-21.589
		C881.276,1222.711,883.954,1221.993,886.048,1223.203z"/>
</g>
<g>
	<path fill="#ADBCC3" d="M938.083,1015.999H817.168c-4.166,0-7.543-3.377-7.543-7.543V783.999c0-4.166,3.377-7.543,7.543-7.543
		h120.915c4.164,0,7.543,3.377,7.543,7.543v224.457C945.626,1012.622,942.248,1015.999,938.083,1015.999z"/>
	<g>
		<path fill="#34495E" d="M819.625,983.049V796.821c0-2.595,2.104-4.698,4.699-4.698h106.603c2.594,0,4.699,2.104,4.699,4.698
			v186.228c0,2.596-2.105,4.699-4.699,4.699H824.325C821.729,987.748,819.625,985.645,819.625,983.049z"/>
	</g>
	<circle fill="#34495E" cx="877.625" cy="1002.748" r="7.914"/>
	<path fill="#34495E" d="M894.108,785.813h-32.965c-1.031,0-1.867-0.835-1.867-1.865l0,0c0-1.031,0.836-1.866,1.867-1.866h32.965
		c1.031,0,1.867,0.835,1.867,1.866l0,0C895.975,784.978,895.139,785.813,894.108,785.813z"/>
	<g>
		<path fill="#DF4949" d="M921.251,742.674c-11.633-11.633-27.126-18.039-43.626-18.039s-31.994,6.406-43.627,18.039l-7.07-7.07
			c13.521-13.521,31.525-20.969,50.697-20.969s37.175,7.447,50.696,20.969L921.251,742.674z"/>
		<path fill="#DF4949" d="M846.295,754.971l-7.07-7.07c10.242-10.243,23.879-15.884,38.4-15.884
			c14.52-0.001,28.159,5.64,38.401,15.883l-7.07,7.07c-8.354-8.354-19.481-12.953-31.331-12.953S854.649,746.617,846.295,754.971z"
			/>
		<path fill="#DF4949" d="M896.659,767.267c-5.084-5.084-11.844-7.884-19.033-7.884c-7.191,0-13.949,2.8-19.035,7.884l-7.07-7.07
			c14.393-14.395,37.816-14.395,52.209,0L896.659,767.267z"/>
	</g>
</g>
<g>
	<g>
		<circle fill="#34495E" cx="346.8" cy="379.78" r="112.229"/>
		<circle fill="#F1F1F1" cx="346.801" cy="379.78" r="100.639"/>
		<g>
			<circle fill="#89AB33" cx="346.8" cy="289.204" r="5.318"/>
			<circle fill="#89AB33" cx="346.8" cy="470.356" r="5.318"/>
		</g>
		<g>
			<circle fill="#89AB33" cx="301.512" cy="301.339" r="5.318"/>
			<circle fill="#89AB33" cx="392.088" cy="458.222" r="5.318"/>
		</g>
		<g>
			<circle fill="#89AB33" cx="268.359" cy="334.492" r="5.318"/>
			<circle fill="#89AB33" cx="425.242" cy="425.068" r="5.318"/>
		</g>
		<g>
			<circle fill="#89AB33" cx="256.224" cy="379.78" r="5.318"/>
			<circle fill="#89AB33" cx="437.376" cy="379.78" r="5.317"/>
		</g>
		<g>
			<circle fill="#89AB33" cx="268.359" cy="425.068" r="5.318"/>
			<circle fill="#DF4949" cx="425.242" cy="334.492" r="5.318"/>
		</g>
		<g>
			<circle fill="#89AB33" cx="301.512" cy="458.222" r="5.318"/>
			<circle fill="#DF4949" cx="392.088" cy="301.339" r="5.318"/>
		</g>
		<path fill="#34495E" d="M346.8,384.456c-2.583,0-4.677-2.094-4.677-4.676v-73.021c0-2.583,2.094-4.677,4.677-4.677
			s4.677,2.094,4.677,4.677v73.021C351.477,382.362,349.383,384.456,346.8,384.456z"/>
		<path fill="#34495E" d="M306.699,415.304c-1.401,0-2.788-0.628-3.71-1.825c-1.575-2.048-1.191-4.983,0.855-6.558l40.105-30.848
			c2.046-1.574,4.982-1.191,6.558,0.855s1.191,4.984-0.855,6.559l-40.104,30.848C308.698,414.987,307.694,415.304,306.699,415.304z"
			/>
		<circle fill="#768E2D" cx="346.8" cy="379.78" r="14.28"/>
		<circle fill="#FFFFFF" cx="346.8" cy="379.78" r="4.376"/>
	</g>
	<circle fill="#89AB33" cx="420.718" cy="306.759" r="42.172"/>
	<g>
		<path fill="#FFFFFF" d="M403.744,308.859l-0.228,8.71h-15.581c0-1.684,0.3-3.291,0.901-4.823c0.601-1.531,1.447-2.87,2.539-4.016
			c1.091-1.146,2.759-2.537,5.002-4.172c1.416-1.04,2.375-1.906,2.878-2.601c0.503-0.695,0.754-1.503,0.754-2.426
			c0-1.132-0.356-2.058-1.069-2.775c-0.713-0.718-1.694-1.077-2.944-1.077c-1.461,0-2.53,0.409-3.208,1.227
			s-1.016,2.162-1.016,4.031c0,0.467,0.011,0.911,0.035,1.332h-3.242c-0.012-0.421-0.018-0.765-0.018-1.034
			c0-2.64,0.625-4.706,1.875-6.195c1.25-1.49,3.084-2.234,5.503-2.234c2.442,0,4.314,0.637,5.617,1.91
			c1.303,1.273,1.954,2.839,1.954,4.697c0,1.554-0.427,2.88-1.279,3.979c-0.853,1.098-2.483,2.495-4.89,4.189
			c-2.337,1.658-3.871,3.008-4.601,4.048c-0.73,1.04-1.154,1.963-1.271,2.769h9.183l0.14-5.537H403.744z"/>
		<path fill="#FFFFFF" d="M416.766,311.015h-8.202c-0.28-1.087-0.8-2.003-1.56-2.751l10.147-15.265h2.822v15.072h3.891v2.944h-3.891
			v3.593h2.226v2.962h-8.026v-2.962h2.594V311.015z M416.766,308.07v-9.604l-6.397,9.604H416.766z"/>
		<path fill="#FFFFFF" d="M429.139,314.52v-18.279h-2.769v-3.05h9.324v3.05h-2.874v6.975h10.603v-6.975h-2.857v-3.05h9.324v3.05
			h-2.787v18.279h2.787v3.05h-9.324v-3.05h2.857v-8.254h-10.603v8.254h2.874v3.05h-9.324v-3.05H429.139z"/>
	</g>
</g>
</svg>
