<svg height="439pt" viewBox="0 -34 439.22861 439" width="439pt" xmlns="http://www.w3.org/2000/svg"><path d="m411.582031 371.023438h-129.070312c-3.863281 0-6.996094-3.132813-6.996094-6.996094v-110.0625c0-3.863282 3.132813-6.996094 6.996094-6.996094s6.996093 3.132812 6.996093 6.996094v103.066406h115.074219v-103.078125c0-3.863281 3.132813-6.996094 7-6.996094 3.863281 0 6.996094 3.132813 6.996094 6.996094v110.074219c0 3.863281-3.132813 6.996094-6.996094 6.996094zm0 0"/><path d="m262.09375 278.511719c-1.972656 0-3.929688-.828125-5.3125-2.441407-2.515625-2.9375-2.175781-7.351562.757812-9.867187l85.769532-73.519531c2.640625-2.261719 6.539062-2.242188 9.15625.042968l84.140625 73.519532c2.910156 2.542968 3.210937 6.964844.667969 9.871094-2.542969 2.910156-6.964844 3.207031-9.875.667968l-79.578126-69.535156-81.175781 69.578125c-1.320312 1.128906-2.9375 1.683594-4.550781 1.683594zm0 0"/><path d="m282.511719 312.539062h-235.535157c-25.902343 0-46.976562-21.074218-46.976562-46.976562v-218.492188c0-25.902343 21.074219-46.9726558 46.976562-46.9726558h259.863282c25.902344 0 46.976562 21.0703128 46.976562 46.9726558v150.722657c0 3.863281-3.132812 6.996093-6.996094 6.996093-3.863281 0-6.996093-3.132812-6.996093-6.996093v-150.722657c0-18.183593-14.796875-32.980468-32.984375-32.980468h-259.863282c-18.1875 0-32.984374 14.796875-32.984374 32.980468v218.492188c0 18.1875 14.796874 32.980469 32.984374 32.980469h235.535157c3.863281 0 6.996093 3.132812 6.996093 7 0 3.863281-3.132812 6.996093-6.996093 6.996093zm0 0"/><path d="m346.820312 95.386719h-339.824218c-3.863282 0-6.996094-3.132813-6.996094-6.996094s3.132812-6.996094 6.996094-6.996094h339.824218c3.863282 0 6.996094 3.132813 6.996094 6.996094s-3.132812 6.996094-6.996094 6.996094zm0 0"/><path d="m100.324219 67.621094c-10.78125 0-19.554688-8.769532-19.554688-19.554688 0-10.78125 8.773438-19.554687 19.554688-19.554687 10.785156 0 19.554687 8.773437 19.554687 19.554687 0 10.785156-8.769531 19.554688-19.554687 19.554688zm0-25.117188c-3.066407 0-5.5625 2.496094-5.5625 5.5625s2.496093 5.5625 5.5625 5.5625c3.066406 0 5.5625-2.496094 5.5625-5.5625s-2.496094-5.5625-5.5625-5.5625zm0 0"/><path d="m43.914062 67.445312c-10.785156 0-19.554687-8.773437-19.554687-19.554687s8.769531-19.554687 19.554687-19.554687c10.78125 0 19.554688 8.773437 19.554688 19.554687s-8.773438 19.554687-19.554688 19.554687zm0-25.117187c-3.066406 0-5.5625 2.496094-5.5625 5.5625s2.496094 5.5625 5.5625 5.5625c3.066407 0 5.5625-2.496094 5.5625-5.5625s-2.496093-5.5625-5.5625-5.5625zm0 0"/><path d="m156.738281 67.800781c-10.78125 0-19.554687-8.773437-19.554687-19.554687 0-10.785156 8.773437-19.554688 19.554687-19.554688 10.785157 0 19.554688 8.769532 19.554688 19.554688 0 10.78125-8.769531 19.554687-19.554688 19.554687zm0-25.117187c-3.066406 0-5.5625 2.496094-5.5625 5.5625s2.496094 5.558594 5.5625 5.558594c3.066407 0 5.5625-2.492188 5.5625-5.558594s-2.496093-5.5625-5.5625-5.5625zm0 0"/></svg>